<svg width="151" height="200" viewBox="0 0 151 200" fill="none" xmlns="http://www.w3.org/2000/svg">
<path d="M101.416 92.8595L101.628 74.9605C101.608 66.5613 92.8676 65.1516 86.4144 65.2558C90.7409 63.8253 95.9501 61.3809 99.724 57.308C103.679 53.6588 106.5 48.52 106.01 41.3048C105.187 29.1662 89.9937 23.1177 64.8097 25.5586C64.3962 25.6002 63.9861 25.6419 63.576 25.6836C62.3945 16.7115 60.5562 8.02417 57.7552 0L56.5112 1.23956C53.1646 11.6144 51.163 19.8885 49.9988 27.5655C34.969 30.1523 24.436 33.5966 24.436 33.5966L23.1954 34.8362C23.1954 34.8362 35.3513 33.7355 49.203 33.93C47.6636 49.6658 49.2308 64.61 49.1822 92.8456C26.8025 92.2172 7.16824 95.9324 2.36566 101.904C0.787964 103.203 -0.0530107 104.63 0.0025909 106.161C0.245848 113.005 20.5925 119.29 49.1926 121.692L50.4124 160.501L51.6564 159.258L53.6651 132.942C53.672 132.512 53.7241 132.147 53.8041 131.838C54.4052 131.918 54.9717 132.685 54.9717 134.022L55.8544 168.681L57.0985 167.442L59.2287 139.234C59.2217 138.605 59.2912 138.088 59.4094 137.671C60.0141 137.775 60.5735 138.664 60.5249 140.251L61.5118 176.386L62.7524 175.146L64.4587 122.56C67.7462 122.665 71.0996 122.72 74.5122 122.72C78.1263 122.72 81.6882 122.658 85.1738 122.543L86.9009 177.368L88.1415 176.129L89.6149 147.435C89.6149 146.862 89.681 146.379 89.7887 145.991C90.3517 146.119 90.8729 146.959 90.8695 148.442L92.3533 188.684L93.5905 187.445L95.0952 152.678C95.1126 152.181 95.1855 151.761 95.2967 151.418C96.0126 151.411 96.7354 152.265 96.7702 153.924L98.0073 200L99.2479 198.757L101.055 121.599C125.495 119.467 144.049 114.54 148.646 108.88C150.172 107.599 150.989 106.272 150.989 104.922C150.645 97.408 128.036 91.6026 101.406 92.8595H101.416ZM48.9389 113.54C29.3498 111.651 16.1131 107.679 16.1131 102.658C16.1131 102.293 16.2209 101.943 16.4259 101.602C21.0165 98.3768 35.0907 96.3421 49.1822 94.2275C49.1613 99.7448 48.9389 113.54 48.9389 113.54ZM88.8504 46.1554C89.5976 51.6935 88.0095 55.874 85.1494 59.0302C80.0376 63.6621 72.0205 65.7697 65.5047 66.728C65.6194 56.2768 65.4665 45.4263 64.5595 34.7806C77.1359 36.1209 87.9295 39.2945 88.8539 46.152L88.8504 46.1554ZM85.1807 114.595C82.1122 114.686 78.9707 114.734 75.7597 114.734C71.9823 114.734 68.2952 114.668 64.7228 114.547L64.8688 110.085C64.5317 98.783 65.2371 84.6096 65.4665 69.4745C74.6407 70.5335 85.7055 73.148 85.5143 79.5958L85.1842 114.595H85.1807ZM133.902 105.88C129.339 109.477 117.2 112.255 101.173 113.679L101.402 94.4289C119.744 96.8178 134.631 99.4983 134.631 103.898C134.631 104.578 134.381 105.241 133.902 105.88Z" fill="#FFD520"/>
<path d="M150.999 104.925C150.825 97.4046 128.046 91.6095 101.416 92.863L101.628 74.964C101.597 63.8878 86.4179 64.9676 81.3025 65.6447C87.2762 64.5649 107.248 59.5823 106.014 41.3118C105.19 29.1731 89.9972 23.1246 64.8132 25.5655C64.3997 25.6072 63.9896 25.6489 63.5795 25.6905C62.398 16.7185 60.5597 8.03112 57.7587 0.00695111C54.2558 10.8575 52.2229 19.4129 51.0866 27.3884C35.4764 29.9925 24.4395 33.6036 24.4395 33.6036C24.4395 33.6036 36.5919 32.5029 50.4471 32.6974C48.8833 48.6693 50.5236 63.8253 50.4263 92.8907C23.953 91.9602 0.972164 97.1094 1.25017 104.929C1.48648 111.772 21.8367 118.06 50.4402 120.463L51.6565 159.265L53.6651 132.949C53.7242 129.685 56.2158 129.987 56.2158 132.789L57.1054 167.448L59.2357 139.241C59.2009 135.435 61.8663 135.612 61.776 139.022L62.7594 175.153L64.5039 121.297C68.1736 121.425 71.9302 121.494 75.7597 121.494C79.3738 121.494 82.9324 121.432 86.4214 121.317L88.1519 176.136L89.6254 147.442C89.6462 143.782 92.124 143.973 92.117 147.213L93.6009 187.452L95.1056 152.685C95.2203 149.268 97.9552 149.421 98.0143 152.685L99.2549 198.764L101.09 120.474C130.01 118.081 151.159 111.783 150.999 104.929V104.925ZM90.0876 44.9159C92.1344 60.0997 76.6355 65.0926 65.5013 66.728C65.6194 55.8254 65.4491 44.4888 64.4344 33.4057C77.5842 34.6626 89.1284 37.8119 90.0841 44.9159H90.0876ZM16.1166 102.658C16.1166 98.0191 33.2628 95.5678 50.4263 92.9914C50.4089 98.5087 50.3255 104.522 50.1483 111.14L50.2282 113.661C29.9336 111.828 16.1166 107.79 16.1166 102.661V102.658ZM64.7263 114.547L64.8723 110.085C64.5248 98.4427 65.2823 83.7555 65.4908 68.103C74.8666 69.0683 86.9565 71.6168 86.755 78.3563L86.4144 114.561C82.9602 114.675 79.4017 114.734 75.7667 114.734C72.1318 114.734 68.3022 114.668 64.7298 114.547H64.7263ZM101.17 113.679L101.416 93.0262C120.317 95.4602 135.869 98.1684 135.869 102.658C135.869 107.804 121.711 111.852 101.17 113.679Z" fill="#CE0E2D"/>
</svg>
