<svg width="512" height="512" viewBox="0 0 512 512" fill="none" xmlns="http://www.w3.org/2000/svg">
<path d="M480 256C480 379.713 379.713 480 256 480C132.287 480 32 379.713 32 256C32 132.287 132.287 32 256 32C379.713 32 480 132.287 480 256Z" fill="#009A44"/>
<path d="M465.914 256C465.914 371.928 371.936 465.914 256 465.914C140.064 465.914 46.0856 371.928 46.0856 256C46.0856 140.072 140.064 46.0856 256 46.0856C371.936 46.0856 465.914 140.064 465.914 256Z" fill="white"/>
<path d="M451.829 256C451.829 364.158 364.15 451.829 256 451.829C147.85 451.829 60.1711 364.15 60.1711 256C60.1711 147.85 147.85 60.1711 256 60.1711C364.15 60.1711 451.829 147.85 451.829 256Z" fill="#1D428A"/>
<path d="M359.11 155.674C358.729 164.144 356.326 173.501 351.488 186.303C366.756 202.598 371.274 216.271 360.401 236.96C355.548 236.307 349.162 238.827 342.854 244.007C358.231 259.251 371.671 273.967 382.684 287.508L392.492 269.914L417.42 314.652L403.428 313.027L418.206 337.254C430.471 312.817 437.386 285.221 437.386 256.008C437.386 250.913 443.748 180.874 359.102 155.682" fill="#C1C6C8"/>
<path d="M106.177 301.788C96.1667 295.884 88.2722 287.36 82.8822 278.353C92.8922 275.157 102.054 271.221 110.501 266.788C116.926 236.019 130.327 204.216 150.417 175.274C120.542 163.771 86.8333 181.504 77.6089 223.108C74.1167 238.866 70.2044 277.778 86.3822 320.4C93.9033 314.131 100.763 307.676 106.169 301.78" fill="#C1C6C8"/>
<path d="M243.882 107.343C259.484 116.677 278.929 122.619 299.524 127.962C308.694 118.442 316.892 110.12 322.78 105.204C330.954 103.174 340.14 104.691 345.491 111.186C353.331 120.69 358.091 142.53 358.293 143.658C382.537 151.529 404.89 162.208 420.897 180.33C406.741 149.546 384.224 123.404 356.248 104.816C325.697 85.1144 284.078 87.2689 243.882 107.351" fill="#C1C6C8"/>
<path d="M156.919 165.226C160.24 158.91 164.246 150.533 169.083 139.753C151.226 119.912 140.446 118.893 137.762 118.427C119.477 134.161 104.364 153.481 93.5067 175.298C109.381 161.306 132.831 155.044 156.919 165.226Z" fill="#C1C6C8"/>
<path d="M233.616 100.188C259.376 86.9033 285.828 80.7744 309.822 82.7189C268.087 69.7689 232.923 75.6489 220.868 78.0133C219.724 85.4722 225.954 93.81 233.616 100.188Z" fill="#C1C6C8"/>
<path d="M223.022 106.068C215.431 98.9356 209.582 89.6878 209.38 80.6578C186.607 86.6933 165.583 97.0533 147.251 110.804C157.44 112.609 170.203 114.833 192.728 118.411C219.973 107.647 222.641 106.301 223.03 106.068" fill="#C1C6C8"/>
<path d="M334.859 252.158C302.97 291.786 329.959 330.542 323.636 381.098L343.57 348.244L331.289 349.676L352.398 311.798L366.678 337.41L381.549 313.019L367.557 314.644L376.758 298.132C365.184 283.712 350.85 268.017 334.859 252.158Z" fill="#C1C6C8"/>
<path d="M196.212 155.682C183.83 162.947 175.796 167.784 169.931 172.443C179.086 178.938 186.334 187.618 192.246 197.892C214.459 177.693 222.089 181.637 246.853 177.071C234.704 168.259 231.01 164.277 196.212 155.682Z" fill="#C1C6C8"/>
<path d="M217.943 134.511C238.531 157.852 244.512 160.909 257.447 170.312C267.877 160.839 279.574 148.76 290.557 137.319C269.907 131.696 250.174 124.976 233.81 114.32C229.843 117.711 226.763 121.997 217.943 134.511Z" fill="#C1C6C8"/>
<path d="M194.68 144.599C203.337 146.971 210.173 148.776 220.526 151.91C215.307 145.944 209.956 140.026 204.908 135.024C209.007 129.456 213.176 123.871 217.656 118.24C208.439 121.701 200.894 124.719 193.163 128.196C184.273 126.026 175.344 124.268 165.949 122.704C172.467 128.522 176.62 132.543 181.979 137.972C178.129 144.397 174.209 151.436 169.978 159.906C178.471 154.383 186.303 149.53 194.68 144.607" fill="#009A44"/>
<path d="M161.103 264.517C142.927 274.776 122.541 280.904 100.336 282.818C113.503 296.211 136.494 299.042 154.982 291.031C149.693 289.639 144.093 287.088 141.107 284.863C150.751 280.298 157.907 272.66 161.103 264.517Z" fill="#C1C6C8"/>
<path d="M351.433 208.408C339.098 208.478 327.454 221.156 318.899 221.156C314.473 221.156 312.28 217.578 312.062 212.841C311.471 199.922 336.018 177.732 340.576 148.044C340.918 145.797 342.396 145.742 343.189 148.114C345.234 154.142 345.756 167.294 344.161 180.027C351.83 161.189 352.351 146.543 345.304 133.951C343.866 135.219 342.318 136.518 341.128 137.467C323.464 133.663 317.063 135.196 311.58 128.507C274.184 167.52 264.991 174.403 250.462 204.146C249.879 199.782 249.194 194.976 248.23 192.292C247.094 189.134 245.407 188.31 240.157 188.31C231.601 188.31 219.024 190.472 212.118 195.761C204.62 201.509 197.146 213.347 193.218 238.609C215.501 238.858 224.554 237.792 233.592 232.939C226.289 247.483 211.612 262.899 187.696 276.666C192.704 278.812 200.778 280.088 207.381 279.691C187.213 301.446 182.236 326.039 193.786 356.442C195.676 343.593 199.883 333.016 205.771 326.311C207.638 358.138 223.979 368.669 243.252 402.362C245.866 392.967 247.157 382.568 247.032 372.62C264.034 393.2 272.52 410.241 276.129 430.992C291.008 415.118 299.976 391.31 300.419 370.014C304.456 375.171 307.551 381.456 309.216 387.756C321.52 345.592 303.211 320.804 309.628 285.26C307.123 282.421 298.404 286.178 288.231 297.767C302.76 252.749 343.842 221.622 355.034 226.787C359.724 216.831 358.558 208.369 351.441 208.408" fill="white"/>
<path d="M343.99 125.769C342.574 120.962 340.723 117.556 338.491 115.666C335.683 113.278 331.032 112.313 326.754 113.2C324.787 114.584 320.384 118.94 315.788 123.793C321.248 123.334 325.984 121.717 332.308 121.717C337.892 121.717 341.532 122.977 343.998 125.769" fill="#009A44"/>
<path d="M352.639 202.839C351.916 199.098 349.504 195.792 346.751 194.493C346.969 196.578 346.603 199.798 345.849 202.722C348.548 202.271 350.834 202.31 352.639 202.839Z" fill="white"/>
<path d="M331.639 194.54C332.603 198.857 332.806 203.593 332.393 207.443C335.458 205.942 338.304 204.783 340.894 203.951C338.919 199.658 335.504 195.994 331.631 194.54" fill="white"/>
<path d="M239.706 198.437C232.091 198.118 225.091 199.494 220.774 202.528C216.24 205.717 211.97 212.857 209.318 221.863C216.147 219.966 224.741 216.691 229.688 212.763C233.219 207.684 236.657 202.66 239.706 198.437Z" fill="#009A44"/>
<path d="M243.618 340.887C243.719 347.381 242.832 356.761 241.572 364.306C226.919 340 216.427 325.44 222.307 300.722C217.71 303.374 212.382 309.184 208.781 315.072C208.859 297.331 215.54 283.487 227.074 270.653C223.901 271.066 218.978 271.066 215.042 270.692C229.797 256.708 233.382 245.197 233.608 232.939H233.6C226.297 247.491 211.62 262.907 187.703 276.673C192.712 278.82 200.786 280.096 207.389 279.707C187.221 301.453 182.243 326.054 193.793 356.458C195.683 343.609 199.891 333.031 205.779 326.327C207.646 358.153 223.987 368.684 243.26 402.378C245.873 392.982 247.164 382.583 247.04 372.636C264.042 393.208 272.528 410.249 276.137 430.992C281.247 401.452 274.13 379.838 243.626 340.894" fill="#C1C6C8"/>
<path d="M161.018 180.758C160.528 181.528 135.413 214.249 123.436 259.298C149.242 242.91 167.707 222.361 183.41 206.51C173.789 188.186 161.134 180.828 161.018 180.758Z" fill="#C1C6C8"/>
</svg>
